<mxfile host="app.diagrams.net" modified="2023-05-25T08:39:00.063Z" agent="Mozilla/5.0 (Windows NT 10.0; Win64; x64) AppleWebKit/537.36 (KHTML, like Gecko) Chrome/113.0.0.0 Safari/537.36" etag="1Nc6HTY2KA1Xd5RF3df2" version="21.3.3" type="device">
  <diagram id="C5RBs43oDa-KdzZeNtuy" name="Page-1">
    <mxGraphModel dx="346" dy="170" grid="1" gridSize="10" guides="1" tooltips="1" connect="1" arrows="1" fold="1" page="1" pageScale="1" pageWidth="1169" pageHeight="1654" math="0" shadow="0">
      <root>
        <mxCell id="WIyWlLk6GJQsqaUBKTNV-0" />
        <mxCell id="WIyWlLk6GJQsqaUBKTNV-1" parent="WIyWlLk6GJQsqaUBKTNV-0" />
        <mxCell id="8sq-y23rsWiQ_tnRiYqX-147" value="&lt;font style=&quot;font-size: 9px;&quot;&gt;여행계획&lt;br&gt;&lt;/font&gt;" style="rounded=0;whiteSpace=wrap;html=1;align=left;horizontal=1;verticalAlign=top;fontSize=6;" vertex="1" parent="WIyWlLk6GJQsqaUBKTNV-1">
          <mxGeometry x="740" y="420" width="370" height="210" as="geometry" />
        </mxCell>
        <mxCell id="8sq-y23rsWiQ_tnRiYqX-129" value="&lt;font style=&quot;font-size: 9px;&quot;&gt;여행정보 추가&lt;br&gt;&lt;/font&gt;" style="rounded=0;whiteSpace=wrap;html=1;align=left;horizontal=1;verticalAlign=top;fontSize=6;" vertex="1" parent="WIyWlLk6GJQsqaUBKTNV-1">
          <mxGeometry x="640" y="70" width="430" height="250" as="geometry" />
        </mxCell>
        <mxCell id="8sq-y23rsWiQ_tnRiYqX-97" value="&lt;font style=&quot;font-size: 9px;&quot;&gt;게시글&lt;br&gt;&lt;/font&gt;" style="rounded=0;whiteSpace=wrap;html=1;align=left;horizontal=1;verticalAlign=top;fontSize=6;" vertex="1" parent="WIyWlLk6GJQsqaUBKTNV-1">
          <mxGeometry x="130" y="380" width="500" height="310" as="geometry" />
        </mxCell>
        <mxCell id="8sq-y23rsWiQ_tnRiYqX-80" value="&lt;font style=&quot;font-size: 9px;&quot;&gt;회원&lt;/font&gt;" style="rounded=0;whiteSpace=wrap;html=1;align=left;horizontal=1;verticalAlign=top;fontSize=6;" vertex="1" parent="WIyWlLk6GJQsqaUBKTNV-1">
          <mxGeometry x="130" y="60" width="370" height="300" as="geometry" />
        </mxCell>
        <mxCell id="8sq-y23rsWiQ_tnRiYqX-0" value="비회원&lt;br&gt;" style="shape=umlActor;verticalLabelPosition=bottom;verticalAlign=top;html=1;outlineConnect=0;" vertex="1" parent="WIyWlLk6GJQsqaUBKTNV-1">
          <mxGeometry x="40" y="115" width="20" height="40" as="geometry" />
        </mxCell>
        <mxCell id="8sq-y23rsWiQ_tnRiYqX-2" value="회원" style="shape=umlActor;verticalLabelPosition=bottom;verticalAlign=top;html=1;outlineConnect=0;" vertex="1" parent="WIyWlLk6GJQsqaUBKTNV-1">
          <mxGeometry x="40" y="210" width="20" height="40" as="geometry" />
        </mxCell>
        <mxCell id="8sq-y23rsWiQ_tnRiYqX-3" value="회원가입" style="ellipse;whiteSpace=wrap;html=1;" vertex="1" parent="WIyWlLk6GJQsqaUBKTNV-1">
          <mxGeometry x="170" y="85" width="110" height="30" as="geometry" />
        </mxCell>
        <mxCell id="8sq-y23rsWiQ_tnRiYqX-6" value="여행정보 검색" style="ellipse;whiteSpace=wrap;html=1;fontSize=10;" vertex="1" parent="WIyWlLk6GJQsqaUBKTNV-1">
          <mxGeometry x="680" y="130" width="110" height="30" as="geometry" />
        </mxCell>
        <mxCell id="8sq-y23rsWiQ_tnRiYqX-10" value="게시판 목록 조회" style="ellipse;whiteSpace=wrap;html=1;fontSize=10;" vertex="1" parent="WIyWlLk6GJQsqaUBKTNV-1">
          <mxGeometry x="160" y="540" width="90" height="20" as="geometry" />
        </mxCell>
        <mxCell id="8sq-y23rsWiQ_tnRiYqX-11" value="상세게시글 조회" style="ellipse;whiteSpace=wrap;html=1;fontSize=10;" vertex="1" parent="WIyWlLk6GJQsqaUBKTNV-1">
          <mxGeometry x="345" y="465" width="90" height="25" as="geometry" />
        </mxCell>
        <mxCell id="8sq-y23rsWiQ_tnRiYqX-13" value="게시글 작성" style="ellipse;whiteSpace=wrap;html=1;fontSize=10;" vertex="1" parent="WIyWlLk6GJQsqaUBKTNV-1">
          <mxGeometry x="330" y="630" width="90" height="20" as="geometry" />
        </mxCell>
        <mxCell id="8sq-y23rsWiQ_tnRiYqX-14" value="댓글 작성" style="ellipse;whiteSpace=wrap;html=1;fontSize=10;" vertex="1" parent="WIyWlLk6GJQsqaUBKTNV-1">
          <mxGeometry x="532.5" y="512.5" width="80" height="20" as="geometry" />
        </mxCell>
        <mxCell id="8sq-y23rsWiQ_tnRiYqX-16" value="게시글 추천" style="ellipse;whiteSpace=wrap;html=1;fontSize=10;" vertex="1" parent="WIyWlLk6GJQsqaUBKTNV-1">
          <mxGeometry x="532.5" y="472.5" width="80" height="20" as="geometry" />
        </mxCell>
        <mxCell id="8sq-y23rsWiQ_tnRiYqX-17" value="여행지 정보확인" style="ellipse;whiteSpace=wrap;html=1;fontSize=10;" vertex="1" parent="WIyWlLk6GJQsqaUBKTNV-1">
          <mxGeometry x="530" y="422.5" width="85" height="30" as="geometry" />
        </mxCell>
        <mxCell id="8sq-y23rsWiQ_tnRiYqX-19" value="개인정보 수정" style="ellipse;whiteSpace=wrap;html=1;" vertex="1" parent="WIyWlLk6GJQsqaUBKTNV-1">
          <mxGeometry x="160" y="240" width="100" height="30" as="geometry" />
        </mxCell>
        <mxCell id="8sq-y23rsWiQ_tnRiYqX-20" value="비밀번호 변경" style="ellipse;whiteSpace=wrap;html=1;" vertex="1" parent="WIyWlLk6GJQsqaUBKTNV-1">
          <mxGeometry x="160" y="280" width="100" height="30" as="geometry" />
        </mxCell>
        <mxCell id="8sq-y23rsWiQ_tnRiYqX-21" value="회원 탈퇴" style="ellipse;whiteSpace=wrap;html=1;" vertex="1" parent="WIyWlLk6GJQsqaUBKTNV-1">
          <mxGeometry x="160" y="320" width="100" height="30" as="geometry" />
        </mxCell>
        <mxCell id="8sq-y23rsWiQ_tnRiYqX-22" value="최적경로 검색" style="ellipse;whiteSpace=wrap;html=1;fontSize=10;" vertex="1" parent="WIyWlLk6GJQsqaUBKTNV-1">
          <mxGeometry x="790" y="460" width="110" height="40" as="geometry" />
        </mxCell>
        <mxCell id="8sq-y23rsWiQ_tnRiYqX-23" value="경로 설정 및 탐색" style="ellipse;whiteSpace=wrap;html=1;fontSize=10;" vertex="1" parent="WIyWlLk6GJQsqaUBKTNV-1">
          <mxGeometry x="790" y="510" width="110" height="40" as="geometry" />
        </mxCell>
        <mxCell id="8sq-y23rsWiQ_tnRiYqX-24" value="유저 팔로우" style="ellipse;whiteSpace=wrap;html=1;" vertex="1" parent="WIyWlLk6GJQsqaUBKTNV-1">
          <mxGeometry x="370" y="170" width="110" height="40" as="geometry" />
        </mxCell>
        <mxCell id="8sq-y23rsWiQ_tnRiYqX-25" value="여행경로 공유" style="ellipse;whiteSpace=wrap;html=1;fontSize=10;" vertex="1" parent="WIyWlLk6GJQsqaUBKTNV-1">
          <mxGeometry x="490" y="645" width="80" height="30" as="geometry" />
        </mxCell>
        <mxCell id="8sq-y23rsWiQ_tnRiYqX-63" value="사용자 페이지&lt;br&gt;조회" style="ellipse;whiteSpace=wrap;html=1;" vertex="1" parent="WIyWlLk6GJQsqaUBKTNV-1">
          <mxGeometry x="170" y="180" width="110" height="40" as="geometry" />
        </mxCell>
        <mxCell id="8sq-y23rsWiQ_tnRiYqX-66" value="" style="endArrow=classic;html=1;rounded=0;dashed=1;entryX=1;entryY=0.5;entryDx=0;entryDy=0;" edge="1" parent="WIyWlLk6GJQsqaUBKTNV-1" source="8sq-y23rsWiQ_tnRiYqX-24" target="8sq-y23rsWiQ_tnRiYqX-63">
          <mxGeometry relative="1" as="geometry">
            <mxPoint x="510" y="940" as="sourcePoint" />
            <mxPoint x="480" y="830" as="targetPoint" />
          </mxGeometry>
        </mxCell>
        <mxCell id="8sq-y23rsWiQ_tnRiYqX-67" value="&amp;lt;&amp;lt; extend&amp;gt;&amp;gt;" style="edgeLabel;resizable=0;html=1;align=center;verticalAlign=middle;" connectable="0" vertex="1" parent="8sq-y23rsWiQ_tnRiYqX-66">
          <mxGeometry relative="1" as="geometry">
            <mxPoint y="-10" as="offset" />
          </mxGeometry>
        </mxCell>
        <mxCell id="8sq-y23rsWiQ_tnRiYqX-81" value="" style="endArrow=none;html=1;rounded=0;entryX=0;entryY=0.5;entryDx=0;entryDy=0;exitX=1;exitY=0.3333333333333333;exitDx=0;exitDy=0;exitPerimeter=0;" edge="1" parent="WIyWlLk6GJQsqaUBKTNV-1" source="8sq-y23rsWiQ_tnRiYqX-2" target="8sq-y23rsWiQ_tnRiYqX-63">
          <mxGeometry width="50" height="50" relative="1" as="geometry">
            <mxPoint x="60" y="230" as="sourcePoint" />
            <mxPoint x="110" y="180" as="targetPoint" />
          </mxGeometry>
        </mxCell>
        <mxCell id="8sq-y23rsWiQ_tnRiYqX-82" value="" style="endArrow=none;html=1;rounded=0;exitX=0;exitY=0.5;exitDx=0;exitDy=0;entryX=1;entryY=0.3333333333333333;entryDx=0;entryDy=0;entryPerimeter=0;" edge="1" parent="WIyWlLk6GJQsqaUBKTNV-1" source="8sq-y23rsWiQ_tnRiYqX-63" target="8sq-y23rsWiQ_tnRiYqX-0">
          <mxGeometry width="50" height="50" relative="1" as="geometry">
            <mxPoint x="70" y="250" as="sourcePoint" />
            <mxPoint x="70" y="100" as="targetPoint" />
          </mxGeometry>
        </mxCell>
        <mxCell id="8sq-y23rsWiQ_tnRiYqX-83" value="" style="endArrow=none;html=1;rounded=0;exitX=0;exitY=0.5;exitDx=0;exitDy=0;entryX=1;entryY=0.3333333333333333;entryDx=0;entryDy=0;entryPerimeter=0;" edge="1" parent="WIyWlLk6GJQsqaUBKTNV-1" source="8sq-y23rsWiQ_tnRiYqX-3" target="8sq-y23rsWiQ_tnRiYqX-0">
          <mxGeometry width="50" height="50" relative="1" as="geometry">
            <mxPoint x="180" y="230" as="sourcePoint" />
            <mxPoint x="70" y="103" as="targetPoint" />
          </mxGeometry>
        </mxCell>
        <mxCell id="8sq-y23rsWiQ_tnRiYqX-84" value="" style="endArrow=none;html=1;rounded=0;entryX=0;entryY=0.5;entryDx=0;entryDy=0;exitX=1;exitY=0.3333333333333333;exitDx=0;exitDy=0;exitPerimeter=0;" edge="1" parent="WIyWlLk6GJQsqaUBKTNV-1" source="8sq-y23rsWiQ_tnRiYqX-2" target="8sq-y23rsWiQ_tnRiYqX-21">
          <mxGeometry width="50" height="50" relative="1" as="geometry">
            <mxPoint x="70" y="233" as="sourcePoint" />
            <mxPoint x="180" y="230" as="targetPoint" />
          </mxGeometry>
        </mxCell>
        <mxCell id="8sq-y23rsWiQ_tnRiYqX-86" value="유저 추천 게시글&lt;br&gt;조회" style="ellipse;whiteSpace=wrap;html=1;" vertex="1" parent="WIyWlLk6GJQsqaUBKTNV-1">
          <mxGeometry x="370" y="220" width="110" height="40" as="geometry" />
        </mxCell>
        <mxCell id="8sq-y23rsWiQ_tnRiYqX-87" value="" style="endArrow=classic;html=1;rounded=0;dashed=1;entryX=1;entryY=0.5;entryDx=0;entryDy=0;exitX=0;exitY=0.5;exitDx=0;exitDy=0;" edge="1" parent="WIyWlLk6GJQsqaUBKTNV-1" source="8sq-y23rsWiQ_tnRiYqX-86" target="8sq-y23rsWiQ_tnRiYqX-63">
          <mxGeometry relative="1" as="geometry">
            <mxPoint x="380" y="200" as="sourcePoint" />
            <mxPoint x="290" y="200" as="targetPoint" />
          </mxGeometry>
        </mxCell>
        <mxCell id="8sq-y23rsWiQ_tnRiYqX-88" value="&amp;lt;&amp;lt; extend&amp;gt;&amp;gt;" style="edgeLabel;resizable=0;html=1;align=center;verticalAlign=middle;" connectable="0" vertex="1" parent="8sq-y23rsWiQ_tnRiYqX-87">
          <mxGeometry relative="1" as="geometry">
            <mxPoint y="-10" as="offset" />
          </mxGeometry>
        </mxCell>
        <mxCell id="8sq-y23rsWiQ_tnRiYqX-89" value="" style="endArrow=none;html=1;rounded=0;entryX=0;entryY=0.5;entryDx=0;entryDy=0;exitX=1;exitY=0.3333333333333333;exitDx=0;exitDy=0;exitPerimeter=0;" edge="1" parent="WIyWlLk6GJQsqaUBKTNV-1" source="8sq-y23rsWiQ_tnRiYqX-2" target="8sq-y23rsWiQ_tnRiYqX-20">
          <mxGeometry width="50" height="50" relative="1" as="geometry">
            <mxPoint x="60" y="230" as="sourcePoint" />
            <mxPoint x="170" y="345" as="targetPoint" />
          </mxGeometry>
        </mxCell>
        <mxCell id="8sq-y23rsWiQ_tnRiYqX-90" value="" style="endArrow=none;html=1;rounded=0;entryX=0;entryY=0.5;entryDx=0;entryDy=0;exitX=1;exitY=0.3333333333333333;exitDx=0;exitDy=0;exitPerimeter=0;" edge="1" parent="WIyWlLk6GJQsqaUBKTNV-1" source="8sq-y23rsWiQ_tnRiYqX-2" target="8sq-y23rsWiQ_tnRiYqX-19">
          <mxGeometry width="50" height="50" relative="1" as="geometry">
            <mxPoint x="70" y="233" as="sourcePoint" />
            <mxPoint x="170" y="305" as="targetPoint" />
          </mxGeometry>
        </mxCell>
        <mxCell id="8sq-y23rsWiQ_tnRiYqX-91" value="유저 팔로우 취소" style="ellipse;whiteSpace=wrap;html=1;" vertex="1" parent="WIyWlLk6GJQsqaUBKTNV-1">
          <mxGeometry x="370" y="85" width="110" height="40" as="geometry" />
        </mxCell>
        <mxCell id="8sq-y23rsWiQ_tnRiYqX-92" value="" style="endArrow=classic;html=1;rounded=0;dashed=1;exitX=0.5;exitY=1;exitDx=0;exitDy=0;" edge="1" parent="WIyWlLk6GJQsqaUBKTNV-1" source="8sq-y23rsWiQ_tnRiYqX-91" target="8sq-y23rsWiQ_tnRiYqX-24">
          <mxGeometry relative="1" as="geometry">
            <mxPoint x="380" y="200" as="sourcePoint" />
            <mxPoint x="290" y="200" as="targetPoint" />
          </mxGeometry>
        </mxCell>
        <mxCell id="8sq-y23rsWiQ_tnRiYqX-93" value="&amp;lt;&amp;lt; extend&amp;gt;&amp;gt;" style="edgeLabel;resizable=0;html=1;align=center;verticalAlign=middle;" connectable="0" vertex="1" parent="8sq-y23rsWiQ_tnRiYqX-92">
          <mxGeometry relative="1" as="geometry">
            <mxPoint y="-10" as="offset" />
          </mxGeometry>
        </mxCell>
        <mxCell id="8sq-y23rsWiQ_tnRiYqX-94" value="유저 팔로우&lt;br&gt;목록 조회" style="ellipse;whiteSpace=wrap;html=1;" vertex="1" parent="WIyWlLk6GJQsqaUBKTNV-1">
          <mxGeometry x="370" y="270" width="110" height="40" as="geometry" />
        </mxCell>
        <mxCell id="8sq-y23rsWiQ_tnRiYqX-95" value="" style="endArrow=classic;html=1;rounded=0;dashed=1;exitX=0;exitY=0.5;exitDx=0;exitDy=0;entryX=1;entryY=0.5;entryDx=0;entryDy=0;" edge="1" parent="WIyWlLk6GJQsqaUBKTNV-1" source="8sq-y23rsWiQ_tnRiYqX-94" target="8sq-y23rsWiQ_tnRiYqX-63">
          <mxGeometry relative="1" as="geometry">
            <mxPoint x="380" y="250" as="sourcePoint" />
            <mxPoint x="280" y="190" as="targetPoint" />
          </mxGeometry>
        </mxCell>
        <mxCell id="8sq-y23rsWiQ_tnRiYqX-96" value="&amp;lt;&amp;lt; extend&amp;gt;&amp;gt;" style="edgeLabel;resizable=0;html=1;align=center;verticalAlign=middle;" connectable="0" vertex="1" parent="8sq-y23rsWiQ_tnRiYqX-95">
          <mxGeometry relative="1" as="geometry">
            <mxPoint y="-10" as="offset" />
          </mxGeometry>
        </mxCell>
        <mxCell id="8sq-y23rsWiQ_tnRiYqX-98" value="비회원&lt;br&gt;" style="shape=umlActor;verticalLabelPosition=bottom;verticalAlign=top;html=1;outlineConnect=0;" vertex="1" parent="WIyWlLk6GJQsqaUBKTNV-1">
          <mxGeometry x="40" y="450" width="20" height="40" as="geometry" />
        </mxCell>
        <mxCell id="8sq-y23rsWiQ_tnRiYqX-99" value="회원" style="shape=umlActor;verticalLabelPosition=bottom;verticalAlign=top;html=1;outlineConnect=0;" vertex="1" parent="WIyWlLk6GJQsqaUBKTNV-1">
          <mxGeometry x="40" y="560" width="20" height="40" as="geometry" />
        </mxCell>
        <mxCell id="8sq-y23rsWiQ_tnRiYqX-101" value="핫플레이스&lt;br&gt;목록 확인" style="ellipse;whiteSpace=wrap;html=1;fontSize=10;" vertex="1" parent="WIyWlLk6GJQsqaUBKTNV-1">
          <mxGeometry x="160" y="440" width="90" height="30" as="geometry" />
        </mxCell>
        <mxCell id="8sq-y23rsWiQ_tnRiYqX-102" value="" style="endArrow=none;html=1;rounded=0;entryX=0;entryY=0.5;entryDx=0;entryDy=0;exitX=1;exitY=0.3333333333333333;exitDx=0;exitDy=0;exitPerimeter=0;" edge="1" parent="WIyWlLk6GJQsqaUBKTNV-1" source="8sq-y23rsWiQ_tnRiYqX-98" target="8sq-y23rsWiQ_tnRiYqX-101">
          <mxGeometry width="50" height="50" relative="1" as="geometry">
            <mxPoint x="60" y="470" as="sourcePoint" />
            <mxPoint x="110" y="420" as="targetPoint" />
          </mxGeometry>
        </mxCell>
        <mxCell id="8sq-y23rsWiQ_tnRiYqX-103" value="" style="endArrow=classic;html=1;rounded=0;exitX=0.5;exitY=0;exitDx=0;exitDy=0;exitPerimeter=0;" edge="1" parent="WIyWlLk6GJQsqaUBKTNV-1" source="8sq-y23rsWiQ_tnRiYqX-99" target="8sq-y23rsWiQ_tnRiYqX-98">
          <mxGeometry width="50" height="50" relative="1" as="geometry">
            <mxPoint x="220" y="570" as="sourcePoint" />
            <mxPoint x="270" y="520" as="targetPoint" />
          </mxGeometry>
        </mxCell>
        <mxCell id="8sq-y23rsWiQ_tnRiYqX-104" value="" style="endArrow=none;html=1;rounded=0;entryX=0;entryY=0.5;entryDx=0;entryDy=0;exitX=1;exitY=0.3333333333333333;exitDx=0;exitDy=0;exitPerimeter=0;" edge="1" parent="WIyWlLk6GJQsqaUBKTNV-1" source="8sq-y23rsWiQ_tnRiYqX-99" target="8sq-y23rsWiQ_tnRiYqX-10">
          <mxGeometry width="50" height="50" relative="1" as="geometry">
            <mxPoint x="70" y="473" as="sourcePoint" />
            <mxPoint x="166" y="445" as="targetPoint" />
          </mxGeometry>
        </mxCell>
        <mxCell id="8sq-y23rsWiQ_tnRiYqX-105" value="" style="endArrow=classic;html=1;rounded=0;dashed=1;exitX=0;exitY=0.5;exitDx=0;exitDy=0;entryX=1;entryY=0.5;entryDx=0;entryDy=0;" edge="1" parent="WIyWlLk6GJQsqaUBKTNV-1" source="8sq-y23rsWiQ_tnRiYqX-11" target="8sq-y23rsWiQ_tnRiYqX-10">
          <mxGeometry relative="1" as="geometry">
            <mxPoint x="380" y="300" as="sourcePoint" />
            <mxPoint x="290" y="200" as="targetPoint" />
          </mxGeometry>
        </mxCell>
        <mxCell id="8sq-y23rsWiQ_tnRiYqX-106" value="&amp;lt;&amp;lt; extend&amp;gt;&amp;gt;" style="edgeLabel;resizable=0;html=1;align=center;verticalAlign=middle;" connectable="0" vertex="1" parent="8sq-y23rsWiQ_tnRiYqX-105">
          <mxGeometry relative="1" as="geometry">
            <mxPoint y="-10" as="offset" />
          </mxGeometry>
        </mxCell>
        <mxCell id="8sq-y23rsWiQ_tnRiYqX-107" value="" style="endArrow=classic;html=1;rounded=0;dashed=1;exitX=0;exitY=0.5;exitDx=0;exitDy=0;entryX=1;entryY=0.5;entryDx=0;entryDy=0;" edge="1" parent="WIyWlLk6GJQsqaUBKTNV-1" source="8sq-y23rsWiQ_tnRiYqX-16" target="8sq-y23rsWiQ_tnRiYqX-11">
          <mxGeometry relative="1" as="geometry">
            <mxPoint x="500" y="549.66" as="sourcePoint" />
            <mxPoint x="430" y="550" as="targetPoint" />
          </mxGeometry>
        </mxCell>
        <mxCell id="8sq-y23rsWiQ_tnRiYqX-108" value="&amp;lt;&amp;lt; extend&amp;gt;&amp;gt;" style="edgeLabel;resizable=0;html=1;align=center;verticalAlign=middle;" connectable="0" vertex="1" parent="8sq-y23rsWiQ_tnRiYqX-107">
          <mxGeometry relative="1" as="geometry">
            <mxPoint y="-10" as="offset" />
          </mxGeometry>
        </mxCell>
        <mxCell id="8sq-y23rsWiQ_tnRiYqX-109" value="" style="endArrow=classic;html=1;rounded=0;dashed=1;exitX=0;exitY=0.5;exitDx=0;exitDy=0;entryX=1;entryY=0.5;entryDx=0;entryDy=0;" edge="1" parent="WIyWlLk6GJQsqaUBKTNV-1" source="8sq-y23rsWiQ_tnRiYqX-13" target="8sq-y23rsWiQ_tnRiYqX-10">
          <mxGeometry relative="1" as="geometry">
            <mxPoint x="340" y="560" as="sourcePoint" />
            <mxPoint x="260" y="560" as="targetPoint" />
          </mxGeometry>
        </mxCell>
        <mxCell id="8sq-y23rsWiQ_tnRiYqX-110" value="&amp;lt;&amp;lt; extend&amp;gt;&amp;gt;" style="edgeLabel;resizable=0;html=1;align=center;verticalAlign=middle;" connectable="0" vertex="1" parent="8sq-y23rsWiQ_tnRiYqX-109">
          <mxGeometry relative="1" as="geometry">
            <mxPoint y="-10" as="offset" />
          </mxGeometry>
        </mxCell>
        <mxCell id="8sq-y23rsWiQ_tnRiYqX-111" value="" style="endArrow=classic;html=1;rounded=0;dashed=1;exitX=0;exitY=0.5;exitDx=0;exitDy=0;entryX=1;entryY=0.5;entryDx=0;entryDy=0;" edge="1" parent="WIyWlLk6GJQsqaUBKTNV-1" source="8sq-y23rsWiQ_tnRiYqX-14" target="8sq-y23rsWiQ_tnRiYqX-11">
          <mxGeometry relative="1" as="geometry">
            <mxPoint x="500" y="560" as="sourcePoint" />
            <mxPoint x="430" y="560" as="targetPoint" />
          </mxGeometry>
        </mxCell>
        <mxCell id="8sq-y23rsWiQ_tnRiYqX-112" value="&amp;lt;&amp;lt; extend&amp;gt;&amp;gt;" style="edgeLabel;resizable=0;html=1;align=center;verticalAlign=middle;" connectable="0" vertex="1" parent="8sq-y23rsWiQ_tnRiYqX-111">
          <mxGeometry relative="1" as="geometry">
            <mxPoint y="-10" as="offset" />
          </mxGeometry>
        </mxCell>
        <mxCell id="8sq-y23rsWiQ_tnRiYqX-115" value="" style="endArrow=classic;html=1;rounded=0;dashed=1;exitX=0;exitY=0.5;exitDx=0;exitDy=0;entryX=1;entryY=0.5;entryDx=0;entryDy=0;" edge="1" parent="WIyWlLk6GJQsqaUBKTNV-1" source="8sq-y23rsWiQ_tnRiYqX-25" target="8sq-y23rsWiQ_tnRiYqX-13">
          <mxGeometry relative="1" as="geometry">
            <mxPoint x="490" y="630" as="sourcePoint" />
            <mxPoint x="420" y="590" as="targetPoint" />
          </mxGeometry>
        </mxCell>
        <mxCell id="8sq-y23rsWiQ_tnRiYqX-116" value="&amp;lt;&amp;lt; extend&amp;gt;&amp;gt;" style="edgeLabel;resizable=0;html=1;align=center;verticalAlign=middle;" connectable="0" vertex="1" parent="8sq-y23rsWiQ_tnRiYqX-115">
          <mxGeometry relative="1" as="geometry">
            <mxPoint y="-10" as="offset" />
          </mxGeometry>
        </mxCell>
        <mxCell id="8sq-y23rsWiQ_tnRiYqX-117" value="" style="endArrow=classic;html=1;rounded=0;dashed=1;exitX=0;exitY=0.5;exitDx=0;exitDy=0;entryX=1;entryY=0.5;entryDx=0;entryDy=0;" edge="1" parent="WIyWlLk6GJQsqaUBKTNV-1" source="8sq-y23rsWiQ_tnRiYqX-11" target="8sq-y23rsWiQ_tnRiYqX-101">
          <mxGeometry relative="1" as="geometry">
            <mxPoint x="380" y="510" as="sourcePoint" />
            <mxPoint x="300" y="510" as="targetPoint" />
          </mxGeometry>
        </mxCell>
        <mxCell id="8sq-y23rsWiQ_tnRiYqX-118" value="&amp;lt;&amp;lt; extend&amp;gt;&amp;gt;" style="edgeLabel;resizable=0;html=1;align=center;verticalAlign=middle;" connectable="0" vertex="1" parent="8sq-y23rsWiQ_tnRiYqX-117">
          <mxGeometry relative="1" as="geometry">
            <mxPoint y="-10" as="offset" />
          </mxGeometry>
        </mxCell>
        <mxCell id="8sq-y23rsWiQ_tnRiYqX-119" value="" style="endArrow=classic;html=1;rounded=0;dashed=1;exitX=0;exitY=0.5;exitDx=0;exitDy=0;entryX=1;entryY=0.5;entryDx=0;entryDy=0;" edge="1" parent="WIyWlLk6GJQsqaUBKTNV-1" source="8sq-y23rsWiQ_tnRiYqX-137" target="8sq-y23rsWiQ_tnRiYqX-6">
          <mxGeometry relative="1" as="geometry">
            <mxPoint x="1010" y="-90" as="sourcePoint" />
            <mxPoint x="940" y="-90" as="targetPoint" />
          </mxGeometry>
        </mxCell>
        <mxCell id="8sq-y23rsWiQ_tnRiYqX-120" value="&amp;lt;&amp;lt; extend&amp;gt;&amp;gt;" style="edgeLabel;resizable=0;html=1;align=center;verticalAlign=middle;" connectable="0" vertex="1" parent="8sq-y23rsWiQ_tnRiYqX-119">
          <mxGeometry relative="1" as="geometry">
            <mxPoint y="-10" as="offset" />
          </mxGeometry>
        </mxCell>
        <mxCell id="8sq-y23rsWiQ_tnRiYqX-121" value="게시글 검색" style="ellipse;whiteSpace=wrap;html=1;fontSize=10;" vertex="1" parent="WIyWlLk6GJQsqaUBKTNV-1">
          <mxGeometry x="330" y="590" width="90" height="20" as="geometry" />
        </mxCell>
        <mxCell id="8sq-y23rsWiQ_tnRiYqX-122" value="" style="endArrow=classic;html=1;rounded=0;dashed=1;exitX=0;exitY=0.5;exitDx=0;exitDy=0;" edge="1" parent="WIyWlLk6GJQsqaUBKTNV-1" source="8sq-y23rsWiQ_tnRiYqX-121">
          <mxGeometry relative="1" as="geometry">
            <mxPoint x="340" y="600" as="sourcePoint" />
            <mxPoint x="250" y="550" as="targetPoint" />
          </mxGeometry>
        </mxCell>
        <mxCell id="8sq-y23rsWiQ_tnRiYqX-123" value="&amp;lt;&amp;lt; extend&amp;gt;&amp;gt;" style="edgeLabel;resizable=0;html=1;align=center;verticalAlign=middle;" connectable="0" vertex="1" parent="8sq-y23rsWiQ_tnRiYqX-122">
          <mxGeometry relative="1" as="geometry">
            <mxPoint y="-10" as="offset" />
          </mxGeometry>
        </mxCell>
        <mxCell id="8sq-y23rsWiQ_tnRiYqX-126" value="댓글 삭제" style="ellipse;whiteSpace=wrap;html=1;fontSize=10;" vertex="1" parent="WIyWlLk6GJQsqaUBKTNV-1">
          <mxGeometry x="532.5" y="600" width="80" height="20" as="geometry" />
        </mxCell>
        <mxCell id="8sq-y23rsWiQ_tnRiYqX-127" value="" style="endArrow=classic;html=1;rounded=0;dashed=1;exitX=0.5;exitY=0;exitDx=0;exitDy=0;entryX=0.5;entryY=1;entryDx=0;entryDy=0;" edge="1" parent="WIyWlLk6GJQsqaUBKTNV-1" source="8sq-y23rsWiQ_tnRiYqX-126" target="8sq-y23rsWiQ_tnRiYqX-14">
          <mxGeometry relative="1" as="geometry">
            <mxPoint x="500" y="600" as="sourcePoint" />
            <mxPoint x="430" y="560" as="targetPoint" />
          </mxGeometry>
        </mxCell>
        <mxCell id="8sq-y23rsWiQ_tnRiYqX-128" value="&amp;lt;&amp;lt; extend&amp;gt;&amp;gt;" style="edgeLabel;resizable=0;html=1;align=center;verticalAlign=middle;" connectable="0" vertex="1" parent="8sq-y23rsWiQ_tnRiYqX-127">
          <mxGeometry relative="1" as="geometry">
            <mxPoint y="-10" as="offset" />
          </mxGeometry>
        </mxCell>
        <mxCell id="8sq-y23rsWiQ_tnRiYqX-133" value="비회원&lt;br&gt;" style="shape=umlActor;verticalLabelPosition=bottom;verticalAlign=top;html=1;outlineConnect=0;" vertex="1" parent="WIyWlLk6GJQsqaUBKTNV-1">
          <mxGeometry x="560" y="140" width="20" height="40" as="geometry" />
        </mxCell>
        <mxCell id="8sq-y23rsWiQ_tnRiYqX-134" value="회원" style="shape=umlActor;verticalLabelPosition=bottom;verticalAlign=top;html=1;outlineConnect=0;" vertex="1" parent="WIyWlLk6GJQsqaUBKTNV-1">
          <mxGeometry x="560" y="250" width="20" height="40" as="geometry" />
        </mxCell>
        <mxCell id="8sq-y23rsWiQ_tnRiYqX-135" value="" style="endArrow=classic;html=1;rounded=0;exitX=0.5;exitY=0;exitDx=0;exitDy=0;exitPerimeter=0;" edge="1" source="8sq-y23rsWiQ_tnRiYqX-134" target="8sq-y23rsWiQ_tnRiYqX-133" parent="WIyWlLk6GJQsqaUBKTNV-1">
          <mxGeometry width="50" height="50" relative="1" as="geometry">
            <mxPoint x="740" y="260" as="sourcePoint" />
            <mxPoint x="790" y="210" as="targetPoint" />
          </mxGeometry>
        </mxCell>
        <mxCell id="8sq-y23rsWiQ_tnRiYqX-136" value="" style="endArrow=none;html=1;rounded=0;entryX=0;entryY=0.5;entryDx=0;entryDy=0;exitX=1;exitY=0.3333333333333333;exitDx=0;exitDy=0;exitPerimeter=0;" edge="1" parent="WIyWlLk6GJQsqaUBKTNV-1" source="8sq-y23rsWiQ_tnRiYqX-133" target="8sq-y23rsWiQ_tnRiYqX-6">
          <mxGeometry width="50" height="50" relative="1" as="geometry">
            <mxPoint x="580" y="-67" as="sourcePoint" />
            <mxPoint x="680" y="-90" as="targetPoint" />
          </mxGeometry>
        </mxCell>
        <mxCell id="8sq-y23rsWiQ_tnRiYqX-137" value="여행지 정보 확인" style="ellipse;whiteSpace=wrap;html=1;fontSize=10;" vertex="1" parent="WIyWlLk6GJQsqaUBKTNV-1">
          <mxGeometry x="880" y="130" width="110" height="30" as="geometry" />
        </mxCell>
        <mxCell id="8sq-y23rsWiQ_tnRiYqX-138" value="여행지 추가" style="ellipse;whiteSpace=wrap;html=1;fontSize=10;" vertex="1" parent="WIyWlLk6GJQsqaUBKTNV-1">
          <mxGeometry x="680" y="250" width="110" height="30" as="geometry" />
        </mxCell>
        <mxCell id="8sq-y23rsWiQ_tnRiYqX-139" value="" style="endArrow=classic;html=1;rounded=0;dashed=1;exitX=0;exitY=0.5;exitDx=0;exitDy=0;entryX=1;entryY=0.3333333333333333;entryDx=0;entryDy=0;entryPerimeter=0;" edge="1" parent="WIyWlLk6GJQsqaUBKTNV-1" source="8sq-y23rsWiQ_tnRiYqX-138" target="8sq-y23rsWiQ_tnRiYqX-134">
          <mxGeometry relative="1" as="geometry">
            <mxPoint x="890" y="155" as="sourcePoint" />
            <mxPoint x="800" y="155" as="targetPoint" />
          </mxGeometry>
        </mxCell>
        <mxCell id="8sq-y23rsWiQ_tnRiYqX-140" value="&amp;lt;&amp;lt; extend&amp;gt;&amp;gt;" style="edgeLabel;resizable=0;html=1;align=center;verticalAlign=middle;" connectable="0" vertex="1" parent="8sq-y23rsWiQ_tnRiYqX-139">
          <mxGeometry relative="1" as="geometry">
            <mxPoint y="-10" as="offset" />
          </mxGeometry>
        </mxCell>
        <mxCell id="8sq-y23rsWiQ_tnRiYqX-141" value="여행지 검색" style="ellipse;whiteSpace=wrap;html=1;fontSize=10;" vertex="1" parent="WIyWlLk6GJQsqaUBKTNV-1">
          <mxGeometry x="880" y="190" width="110" height="30" as="geometry" />
        </mxCell>
        <mxCell id="8sq-y23rsWiQ_tnRiYqX-142" value="" style="endArrow=classic;html=1;rounded=0;dashed=1;exitX=0;exitY=0.5;exitDx=0;exitDy=0;entryX=1;entryY=0.5;entryDx=0;entryDy=0;" edge="1" parent="WIyWlLk6GJQsqaUBKTNV-1" source="8sq-y23rsWiQ_tnRiYqX-141" target="8sq-y23rsWiQ_tnRiYqX-6">
          <mxGeometry relative="1" as="geometry">
            <mxPoint x="890" y="195" as="sourcePoint" />
            <mxPoint x="800" y="155" as="targetPoint" />
          </mxGeometry>
        </mxCell>
        <mxCell id="8sq-y23rsWiQ_tnRiYqX-143" value="&amp;lt;&amp;lt; extend&amp;gt;&amp;gt;" style="edgeLabel;resizable=0;html=1;align=center;verticalAlign=middle;" connectable="0" vertex="1" parent="8sq-y23rsWiQ_tnRiYqX-142">
          <mxGeometry relative="1" as="geometry">
            <mxPoint y="-10" as="offset" />
          </mxGeometry>
        </mxCell>
        <mxCell id="8sq-y23rsWiQ_tnRiYqX-144" value="여행지 추가 취소" style="ellipse;whiteSpace=wrap;html=1;fontSize=10;" vertex="1" parent="WIyWlLk6GJQsqaUBKTNV-1">
          <mxGeometry x="900" y="250" width="110" height="30" as="geometry" />
        </mxCell>
        <mxCell id="8sq-y23rsWiQ_tnRiYqX-145" value="" style="endArrow=classic;html=1;rounded=0;dashed=1;exitX=1;exitY=0.5;exitDx=0;exitDy=0;entryX=0;entryY=0.5;entryDx=0;entryDy=0;" edge="1" parent="WIyWlLk6GJQsqaUBKTNV-1" source="8sq-y23rsWiQ_tnRiYqX-138" target="8sq-y23rsWiQ_tnRiYqX-144">
          <mxGeometry relative="1" as="geometry">
            <mxPoint x="845" y="295" as="sourcePoint" />
            <mxPoint x="590" y="273" as="targetPoint" />
          </mxGeometry>
        </mxCell>
        <mxCell id="8sq-y23rsWiQ_tnRiYqX-146" value="&amp;lt;&amp;lt; include &amp;gt;&amp;gt;" style="edgeLabel;resizable=0;html=1;align=center;verticalAlign=middle;" connectable="0" vertex="1" parent="8sq-y23rsWiQ_tnRiYqX-145">
          <mxGeometry relative="1" as="geometry">
            <mxPoint y="-10" as="offset" />
          </mxGeometry>
        </mxCell>
        <mxCell id="8sq-y23rsWiQ_tnRiYqX-148" value="회원" style="shape=umlActor;verticalLabelPosition=bottom;verticalAlign=top;html=1;outlineConnect=0;" vertex="1" parent="WIyWlLk6GJQsqaUBKTNV-1">
          <mxGeometry x="660" y="500" width="20" height="40" as="geometry" />
        </mxCell>
        <mxCell id="8sq-y23rsWiQ_tnRiYqX-155" value="여행정보 공유" style="ellipse;whiteSpace=wrap;html=1;fontSize=10;" vertex="1" parent="WIyWlLk6GJQsqaUBKTNV-1">
          <mxGeometry x="990" y="490" width="100" height="30" as="geometry" />
        </mxCell>
        <mxCell id="8sq-y23rsWiQ_tnRiYqX-158" value="" style="endArrow=classic;html=1;rounded=0;dashed=1;exitX=0;exitY=0.5;exitDx=0;exitDy=0;entryX=1;entryY=0.5;entryDx=0;entryDy=0;" edge="1" parent="WIyWlLk6GJQsqaUBKTNV-1" source="8sq-y23rsWiQ_tnRiYqX-155" target="8sq-y23rsWiQ_tnRiYqX-23">
          <mxGeometry relative="1" as="geometry">
            <mxPoint x="980" y="550" as="sourcePoint" />
            <mxPoint x="870" y="583" as="targetPoint" />
          </mxGeometry>
        </mxCell>
        <mxCell id="8sq-y23rsWiQ_tnRiYqX-159" value="&amp;lt;&amp;lt; extend&amp;gt;&amp;gt;" style="edgeLabel;resizable=0;html=1;align=center;verticalAlign=middle;" connectable="0" vertex="1" parent="8sq-y23rsWiQ_tnRiYqX-158">
          <mxGeometry relative="1" as="geometry">
            <mxPoint y="-10" as="offset" />
          </mxGeometry>
        </mxCell>
        <mxCell id="8sq-y23rsWiQ_tnRiYqX-160" value="" style="endArrow=classic;html=1;rounded=0;dashed=1;exitX=0;exitY=0.5;exitDx=0;exitDy=0;entryX=1;entryY=0.5;entryDx=0;entryDy=0;" edge="1" parent="WIyWlLk6GJQsqaUBKTNV-1" source="8sq-y23rsWiQ_tnRiYqX-155" target="8sq-y23rsWiQ_tnRiYqX-22">
          <mxGeometry relative="1" as="geometry">
            <mxPoint x="980" y="515" as="sourcePoint" />
            <mxPoint x="910" y="540" as="targetPoint" />
          </mxGeometry>
        </mxCell>
        <mxCell id="8sq-y23rsWiQ_tnRiYqX-161" value="&amp;lt;&amp;lt; extend&amp;gt;&amp;gt;" style="edgeLabel;resizable=0;html=1;align=center;verticalAlign=middle;" connectable="0" vertex="1" parent="8sq-y23rsWiQ_tnRiYqX-160">
          <mxGeometry relative="1" as="geometry">
            <mxPoint y="-10" as="offset" />
          </mxGeometry>
        </mxCell>
        <mxCell id="8sq-y23rsWiQ_tnRiYqX-162" value="여행지 추가 취소" style="ellipse;whiteSpace=wrap;html=1;fontSize=10;" vertex="1" parent="WIyWlLk6GJQsqaUBKTNV-1">
          <mxGeometry x="790" y="560" width="110" height="30" as="geometry" />
        </mxCell>
        <mxCell id="8sq-y23rsWiQ_tnRiYqX-163" value="" style="endArrow=none;html=1;rounded=0;entryX=0;entryY=0.5;entryDx=0;entryDy=0;exitX=1;exitY=0.3333333333333333;exitDx=0;exitDy=0;exitPerimeter=0;" edge="1" parent="WIyWlLk6GJQsqaUBKTNV-1" source="8sq-y23rsWiQ_tnRiYqX-148" target="8sq-y23rsWiQ_tnRiYqX-22">
          <mxGeometry width="50" height="50" relative="1" as="geometry">
            <mxPoint x="690" y="203" as="sourcePoint" />
            <mxPoint x="790" y="195" as="targetPoint" />
          </mxGeometry>
        </mxCell>
        <mxCell id="8sq-y23rsWiQ_tnRiYqX-164" value="" style="endArrow=none;html=1;rounded=0;entryX=0;entryY=0.5;entryDx=0;entryDy=0;exitX=1;exitY=0.3333333333333333;exitDx=0;exitDy=0;exitPerimeter=0;" edge="1" parent="WIyWlLk6GJQsqaUBKTNV-1" source="8sq-y23rsWiQ_tnRiYqX-148" target="8sq-y23rsWiQ_tnRiYqX-23">
          <mxGeometry width="50" height="50" relative="1" as="geometry">
            <mxPoint x="690" y="523" as="sourcePoint" />
            <mxPoint x="800" y="490" as="targetPoint" />
          </mxGeometry>
        </mxCell>
        <mxCell id="8sq-y23rsWiQ_tnRiYqX-165" value="" style="endArrow=none;html=1;rounded=0;entryX=0;entryY=0.5;entryDx=0;entryDy=0;exitX=1;exitY=0.3333333333333333;exitDx=0;exitDy=0;exitPerimeter=0;" edge="1" parent="WIyWlLk6GJQsqaUBKTNV-1" source="8sq-y23rsWiQ_tnRiYqX-148" target="8sq-y23rsWiQ_tnRiYqX-162">
          <mxGeometry width="50" height="50" relative="1" as="geometry">
            <mxPoint x="690" y="523" as="sourcePoint" />
            <mxPoint x="800" y="540" as="targetPoint" />
          </mxGeometry>
        </mxCell>
        <mxCell id="8sq-y23rsWiQ_tnRiYqX-166" style="edgeStyle=orthogonalEdgeStyle;rounded=0;orthogonalLoop=1;jettySize=auto;html=1;exitX=0.5;exitY=1;exitDx=0;exitDy=0;" edge="1" parent="WIyWlLk6GJQsqaUBKTNV-1" source="8sq-y23rsWiQ_tnRiYqX-162" target="8sq-y23rsWiQ_tnRiYqX-162">
          <mxGeometry relative="1" as="geometry" />
        </mxCell>
        <mxCell id="8sq-y23rsWiQ_tnRiYqX-167" value="팔로워 순위&lt;br&gt;목록 조회" style="ellipse;whiteSpace=wrap;html=1;" vertex="1" parent="WIyWlLk6GJQsqaUBKTNV-1">
          <mxGeometry x="170" y="125" width="110" height="40" as="geometry" />
        </mxCell>
        <mxCell id="8sq-y23rsWiQ_tnRiYqX-168" value="" style="endArrow=none;html=1;rounded=0;exitX=0;exitY=0.5;exitDx=0;exitDy=0;entryX=1;entryY=0.3333333333333333;entryDx=0;entryDy=0;entryPerimeter=0;" edge="1" parent="WIyWlLk6GJQsqaUBKTNV-1" source="8sq-y23rsWiQ_tnRiYqX-167" target="8sq-y23rsWiQ_tnRiYqX-0">
          <mxGeometry width="50" height="50" relative="1" as="geometry">
            <mxPoint x="180" y="210" as="sourcePoint" />
            <mxPoint x="60" y="130" as="targetPoint" />
          </mxGeometry>
        </mxCell>
        <mxCell id="8sq-y23rsWiQ_tnRiYqX-169" value="" style="endArrow=none;html=1;rounded=0;exitX=0;exitY=0.5;exitDx=0;exitDy=0;entryX=1;entryY=0.3333333333333333;entryDx=0;entryDy=0;entryPerimeter=0;" edge="1" parent="WIyWlLk6GJQsqaUBKTNV-1" source="8sq-y23rsWiQ_tnRiYqX-63" target="8sq-y23rsWiQ_tnRiYqX-2">
          <mxGeometry width="50" height="50" relative="1" as="geometry">
            <mxPoint x="180" y="155" as="sourcePoint" />
            <mxPoint x="70" y="138" as="targetPoint" />
          </mxGeometry>
        </mxCell>
      </root>
    </mxGraphModel>
  </diagram>
</mxfile>
